<svg xmlns="http://www.w3.org/2000/svg" width="1200" height="720" viewBox="0 0 1200 720">
  <defs>
    <style>
      .box { fill:#0f172a; stroke:#94a3b8; stroke-width:2; rx:12; }
      .label { fill:#e2e8f0; font-family:Arial, sans-serif; font-size:16px; }
      .title { fill:#e2e8f0; font-family:Arial, sans-serif; font-size:18px; font-weight:bold; }
      .sub { fill:#94a3b8; font-family:Arial, sans-serif; font-size:14px; }
      .arrow { stroke:#94a3b8; stroke-width:2; fill:none; marker-end:url(#arrow); }
    </style>
    <marker id="arrow" markerWidth="10" markerHeight="10" refX="8" refY="3" orient="auto">
      <path d="M0,0 L0,6 L9,3 z" fill="#94a3b8" />
    </marker>
  </defs>

  <rect x="40" y="40" width="360" height="110" class="box" />
  <text x="60" y="75" class="title">Browser / UI</text>
  <text x="60" y="100" class="sub">Next.js App Router</text>
  <text x="60" y="122" class="sub">TanStack Query + Tremor</text>

  <rect x="40" y="200" width="360" height="170" class="box" />
  <text x="60" y="235" class="title">App (Next.js)</text>
  <text x="60" y="260" class="sub">API Routes</text>
  <text x="60" y="282" class="sub">NextAuth v5 (Prisma)</text>
  <text x="60" y="304" class="sub">Holdings / Signals / Settings</text>

  <rect x="500" y="240" width="260" height="110" class="box" />
  <text x="520" y="275" class="title">PostgreSQL</text>
  <text x="520" y="300" class="sub">Prisma ORM</text>

  <rect x="820" y="60" width="320" height="80" class="box" />
  <text x="840" y="95" class="title">Binance REST</text>
  <text x="840" y="118" class="sub">(WebSocket ready hooks)</text>

  <rect x="820" y="170" width="320" height="80" class="box" />
  <text x="840" y="205" class="title">LLMs</text>
  <text x="840" y="228" class="sub">DeepSeek → OpenAI</text>

  <rect x="820" y="280" width="320" height="80" class="box" />
  <text x="840" y="315" class="title">Resend Email</text>
  <text x="840" y="338" class="sub">React Email</text>

  <rect x="40" y="430" width="360" height="120" class="box" />
  <text x="60" y="465" class="title">Cron Worker</text>
  <text x="60" y="490" class="sub">scripts/cron.ts</text>
  <text x="60" y="512" class="sub">Sync + Signals + Email</text>

  <rect x="500" y="430" width="260" height="80" class="box" />
  <text x="520" y="465" class="title">Redis (Optional)</text>
  <text x="520" y="488" class="sub">Cache / Rate limits</text>

  <rect x="820" y="430" width="320" height="80" class="box" />
  <text x="840" y="465" class="title">GitHub Actions</text>
  <text x="840" y="488" class="sub">Optional scheduler</text>

  <line x1="220" y1="150" x2="220" y2="200" class="arrow" />
  <line x1="400" y1="260" x2="500" y2="295" class="arrow" />
  <line x1="400" y1="250" x2="820" y2="100" class="arrow" />
  <line x1="400" y1="270" x2="820" y2="210" class="arrow" />
  <line x1="400" y1="290" x2="820" y2="320" class="arrow" />

  <line x1="220" y1="370" x2="220" y2="430" class="arrow" />
  <line x1="400" y1="470" x2="500" y2="470" class="arrow" />
  <line x1="400" y1="470" x2="820" y2="470" class="arrow" />
  <line x1="400" y1="450" x2="500" y2="310" class="arrow" />
  <line x1="400" y1="440" x2="820" y2="120" class="arrow" />
  <line x1="400" y1="455" x2="820" y2="230" class="arrow" />
  <line x1="400" y1="470" x2="820" y2="340" class="arrow" />
</svg>
